<svg version="1.1" xmlns="http://www.w3.org/2000/svg" viewBox="0 0 1905.6352689946332 750.2867717507737" width="1905.6352689946332" height="750.2867717507737">
  <!-- svg-source:excalidraw -->
  
  <defs>
    <style class="style-fonts">
      @font-face {
        font-family: "Virgil";
        src: url("https://excalidraw.com/Virgil.woff2");
      }
      @font-face {
        font-family: "Cascadia";
        src: url("https://excalidraw.com/Cascadia.woff2");
      }
    </style>
  </defs>
  <g stroke-linecap="round" transform="translate(10 575.3833071618893) rotate(0 127.006395087091 47.11527559682406)"><path d="M145.66 0.23 C161.27 0.26, 177.82 3.72, 191.5 6.7 C205.17 9.67, 217.98 13.36, 227.7 18.11 C237.43 22.86, 245.52 29.34, 249.86 35.2 C254.2 41.06, 256.05 47.16, 253.72 53.25 C251.4 59.34, 244.33 66.44, 235.92 71.76 C227.5 77.07, 216.14 81.7, 203.22 85.15 C190.31 88.6, 174.17 90.99, 158.43 92.46 C142.68 93.92, 124.64 94.59, 108.75 93.92 C92.86 93.26, 76.87 91.45, 63.07 88.46 C49.27 85.47, 35.67 80.97, 25.96 75.96 C16.25 70.96, 9.1 64.43, 4.83 58.45 C0.55 52.46, -1.89 45.8, 0.29 40.03 C2.47 34.27, 9.41 28.88, 17.91 23.87 C26.4 18.86, 38.48 13.6, 51.28 9.97 C64.08 6.34, 78.4 3.77, 94.72 2.1 C111.05 0.43, 139.64 -0.11, 149.24 -0.04 C158.84 0.03, 152.69 1.46, 152.33 2.51 M136.6 -0.89 C152.22 -1.42, 169.4 2.14, 183.71 4.85 C198.02 7.57, 211.89 11.1, 222.49 15.4 C233.09 19.69, 242.22 24.81, 247.3 30.64 C252.38 36.48, 254.14 44.25, 252.97 50.39 C251.79 56.53, 247.34 61.95, 240.27 67.49 C233.2 73.03, 222.71 79.79, 210.54 83.64 C198.37 87.5, 182.55 88.74, 167.25 90.61 C151.96 92.48, 134.93 95.02, 118.76 94.87 C102.59 94.72, 84.71 92.25, 70.24 89.69 C55.77 87.13, 42.31 83.85, 31.94 79.5 C21.57 75.15, 13.51 69.31, 8.03 63.6 C2.55 57.88, -1.65 51.31, -0.92 45.21 C-0.18 39.12, 4.87 32.72, 12.44 27 C20 21.28, 32.24 14.97, 44.47 10.91 C56.69 6.85, 70.8 4.52, 85.79 2.62 C100.79 0.72, 126.12 -0.13, 134.42 -0.47 C142.72 -0.82, 135.41 -0.4, 135.61 0.54" stroke="none" stroke-width="0" fill="#ffffff"></path><path d="M111.13 -0.6 C126.19 -2.11, 145.38 -0.49, 161.06 1.44 C176.74 3.37, 192.43 7.3, 205.21 10.98 C217.99 14.65, 229.9 18.32, 237.75 23.49 C245.59 28.67, 250.43 35.81, 252.28 42.01 C254.12 48.21, 252.97 55.1, 248.8 60.69 C244.64 66.27, 237.13 70.96, 227.31 75.51 C217.49 80.07, 203.86 84.95, 189.88 88.01 C175.9 91.08, 159.57 93.13, 143.42 93.9 C127.28 94.67, 108.91 94.31, 93.01 92.64 C77.1 90.98, 60.64 87.55, 47.98 83.89 C35.33 80.22, 24.98 75.73, 17.08 70.68 C9.18 65.63, 2.79 59.76, 0.57 53.59 C-1.65 47.42, -0.79 39.54, 3.75 33.65 C8.3 27.76, 17.76 22.86, 27.82 18.24 C37.89 13.62, 47.24 8.96, 64.15 5.93 C81.05 2.9, 115.55 0.84, 129.26 0.05 C142.98 -0.75, 146.56 0.54, 146.41 1.16 M157.11 -0.02 C172.13 1.03, 189.02 6.15, 202.3 10.03 C215.58 13.9, 228.37 17.95, 236.77 23.24 C245.17 28.53, 250.35 35.89, 252.69 41.78 C255.02 47.67, 254.95 53.12, 250.77 58.58 C246.6 64.04, 237.58 69.76, 227.63 74.55 C217.68 79.35, 205.09 84.18, 191.09 87.36 C177.08 90.53, 159.31 92.75, 143.61 93.61 C127.92 94.47, 112.23 93.98, 96.92 92.51 C81.61 91.04, 64.87 88.54, 51.76 84.78 C38.64 81.03, 26.58 75.09, 18.22 70 C9.87 64.91, 3.8 60.05, 1.62 54.22 C-0.56 48.39, 1.19 41.07, 5.15 35.01 C9.12 28.95, 15.95 22.51, 25.41 17.86 C34.87 13.2, 47.73 9.84, 61.9 7.07 C76.07 4.29, 94.35 2.03, 110.45 1.23 C126.55 0.42, 150.61 2.29, 158.48 2.24 C166.36 2.2, 158.07 0.56, 157.71 0.97" stroke="#000000" stroke-width="4" fill="none"></path></g><g transform="translate(43.87442182048942 599.9985827587134) rotate(0 93.13197326660156 22.5)"><text x="93.13197326660156" y="0" font-family="Virgil, Segoe UI Emoji" font-size="36px" fill="#000000" text-anchor="middle" style="white-space: pre;" direction="ltr" dominant-baseline="text-before-edge">Comentário</text></g><g stroke-linecap="round" transform="translate(1004.5420131416571 91.93960973360731) rotate(0 127.006395087091 47.11527559682406)"><path d="M111.57 -0.36 C126.62 -1.79, 145.75 -0.03, 161.62 1.65 C177.49 3.33, 194.16 5.86, 206.8 9.73 C219.44 13.6, 229.76 19.5, 237.46 24.89 C245.16 30.28, 251.1 36.26, 253 42.07 C254.9 47.87, 253.34 53.98, 248.85 59.72 C244.36 65.46, 235.97 71.63, 226.07 76.52 C216.16 81.4, 203.41 86.05, 189.41 89.03 C175.42 92.02, 158.15 93.94, 142.09 94.43 C126.03 94.92, 108.88 93.8, 93.07 91.99 C77.26 90.18, 60 87.1, 47.21 83.55 C34.43 80.01, 23.98 75.82, 16.36 70.74 C8.74 65.66, 3.52 59.04, 1.51 53.05 C-0.5 47.07, -0.1 40.82, 4.29 34.83 C8.69 28.85, 17.72 21.84, 27.87 17.13 C38.02 12.42, 47.68 9.26, 65.2 6.56 C82.72 3.86, 118.49 1.74, 132.99 0.94 C147.48 0.13, 152.24 0.95, 152.19 1.73 M85.77 1.9 C99.6 -0.86, 118.86 -1.75, 134.91 -1.23 C150.95 -0.72, 167.57 2.2, 182.01 4.98 C196.45 7.76, 210.74 10.81, 221.56 15.47 C232.38 20.12, 241.65 27.35, 246.92 32.92 C252.19 38.5, 254.15 42.97, 253.19 48.91 C252.23 54.85, 248.28 62.91, 241.17 68.55 C234.05 74.19, 222.56 78.68, 210.48 82.75 C198.39 86.83, 183.67 90.88, 168.66 93 C153.66 95.12, 136.86 95.87, 120.42 95.47 C103.99 95.08, 84.91 93.36, 70.04 90.62 C55.16 87.88, 41.47 83.86, 31.15 79.02 C20.82 74.19, 13.3 67.41, 8.09 61.63 C2.87 55.84, -0.79 50.28, -0.14 44.31 C0.52 38.35, 4.76 31.35, 12.02 25.85 C19.28 20.35, 30.93 15.12, 43.4 11.3 C55.88 7.48, 79.66 4.47, 86.86 2.94 C94.07 1.41, 85.9 1.47, 86.61 2.11" stroke="none" stroke-width="0" fill="#ffffff"></path><path d="M68.98 6.21 C81.78 2.93, 100.79 0.3, 116.8 -0.25 C132.81 -0.8, 149.74 0.83, 165.03 2.9 C180.32 4.97, 196.02 8.49, 208.54 12.17 C221.06 15.85, 232.6 19.81, 240.16 24.98 C247.72 30.14, 252.44 37.05, 253.89 43.15 C255.33 49.24, 253.86 55.78, 248.84 61.54 C243.82 67.3, 234.56 73.19, 223.78 77.71 C213.01 82.23, 198.51 85.87, 184.22 88.65 C169.92 91.44, 154.09 93.75, 138.02 94.42 C121.96 95.1, 103.48 94.74, 87.81 92.7 C72.14 90.65, 56.15 86.15, 44.01 82.17 C31.87 78.18, 22.28 74.01, 14.97 68.78 C7.66 63.55, 1.53 56.8, 0.14 50.8 C-1.26 44.79, 1.46 38.5, 6.61 32.76 C11.75 27.02, 19.42 21.31, 30.98 16.35 C42.55 11.38, 67 4.93, 76 2.97 C85.01 1.02, 84.28 3.9, 85 4.62 M66.77 5.84 C79.51 2.6, 97.41 2.27, 113.57 1.58 C129.73 0.89, 148.34 0.35, 163.72 1.69 C179.11 3.03, 193.52 5.86, 205.9 9.63 C218.27 13.4, 230.29 18.9, 237.97 24.29 C245.66 29.69, 249.94 36.02, 251.99 42.01 C254.04 47.99, 254.49 54.43, 250.28 60.22 C246.07 66, 237.1 72.19, 226.76 76.72 C216.41 81.25, 202.56 84.44, 188.22 87.39 C173.88 90.34, 156.74 93.67, 140.74 94.43 C124.73 95.18, 107.8 93.85, 92.2 91.9 C76.6 89.96, 60.01 86.4, 47.14 82.78 C34.28 79.15, 22.52 75.12, 15.01 70.13 C7.5 65.14, 3.73 58.77, 2.08 52.83 C0.43 46.9, 0.8 40.66, 5.12 34.54 C9.44 28.41, 17.66 21.1, 28.02 16.08 C38.37 11.06, 60.54 6.2, 67.26 4.41 C73.97 2.61, 67.38 4.55, 68.31 5.31" stroke="#000000" stroke-width="4" fill="none"></path></g><g transform="translate(1081.3121803800277 116.55488533043138) rotate(0 49.21198272705078 22.5)"><text x="49.21198272705078" y="0" font-family="Virgil, Segoe UI Emoji" font-size="36px" fill="#000000" text-anchor="middle" style="white-space: pre;" direction="ltr" dominant-baseline="text-before-edge">titulo</text></g><g stroke-linecap="round" transform="translate(1216.0486307665299 10) rotate(0 127.00639508709105 47.11527559682407)"><path d="M86.12 2.18 C99.94 -0.24, 117.76 0.3, 133.75 0.78 C149.73 1.27, 167.43 2.63, 182.04 5.07 C196.66 7.52, 210.73 11.03, 221.46 15.47 C232.19 19.92, 240.92 25.9, 246.41 31.75 C251.9 37.59, 255.16 44.5, 254.39 50.56 C253.62 56.62, 248.82 62.9, 241.81 68.11 C234.81 73.32, 224.67 78, 212.35 81.83 C200.03 85.66, 183.28 88.93, 167.9 91.1 C152.52 93.27, 135.98 95.02, 120.08 94.84 C104.17 94.67, 87.19 92.67, 72.46 90.05 C57.73 87.42, 42.51 83.78, 31.69 79.08 C20.86 74.39, 12.77 67.58, 7.53 61.9 C2.28 56.23, -0.71 50.76, 0.22 45.03 C1.15 39.31, 6.02 33.07, 13.08 27.53 C20.14 21.99, 29.78 15.89, 42.59 11.8 C55.4 7.71, 81.48 4.47, 89.95 2.99 C98.42 1.52, 92.89 2.34, 93.4 2.95 M98.84 1.3 C113.33 -0.49, 132.47 -0.94, 148.51 0.26 C164.56 1.46, 181.45 5.38, 195.12 8.5 C208.79 11.63, 221.19 14.13, 230.52 19 C239.84 23.86, 247.59 31.58, 251.08 37.69 C254.57 43.8, 254.23 49.64, 251.47 55.65 C248.7 61.67, 242.89 68.55, 234.49 73.78 C226.09 79.02, 214.61 83.65, 201.06 87.07 C187.51 90.49, 169.35 93.11, 153.21 94.3 C137.07 95.49, 119.75 95.61, 104.2 94.23 C88.64 92.86, 73.5 89.38, 59.89 86.05 C46.28 82.71, 32.16 79.12, 22.53 74.23 C12.9 69.34, 5.46 62.68, 2.11 56.7 C-1.25 50.73, -0.74 44.15, 2.41 38.4 C5.57 32.64, 12.4 27.36, 21.04 22.16 C29.68 16.95, 40.95 10.72, 54.25 7.17 C67.56 3.62, 93.08 1.94, 100.85 0.88 C108.62 -0.18, 100.83 0.2, 100.85 0.81" stroke="none" stroke-width="0" fill="#ffffff"></path><path d="M187.1 6.41 C201.41 8.75, 214.98 14.08, 225.31 18.55 C235.64 23.02, 244.36 27.66, 249.07 33.25 C253.78 38.83, 255.2 45.98, 253.58 52.05 C251.97 58.13, 247.2 64.41, 239.37 69.72 C231.54 75.03, 219.5 80.22, 206.59 83.93 C193.68 87.63, 177.35 90.23, 161.92 91.96 C146.49 93.69, 130.04 94.77, 114.01 94.31 C97.98 93.85, 80.2 92.27, 65.74 89.19 C51.28 86.1, 37.2 80.57, 27.25 75.79 C17.3 71.01, 10.53 66.16, 6.06 60.51 C1.59 54.86, -1.23 47.88, 0.44 41.89 C2.11 35.9, 8.12 29.86, 16.07 24.57 C24.03 19.28, 35.68 14.07, 48.17 10.13 C60.67 6.19, 75.57 2.44, 91.06 0.94 C106.55 -0.55, 123.8 0.23, 141.1 1.17 C158.4 2.1, 184.92 5.14, 194.88 6.55 C204.84 7.95, 201.79 8.73, 200.86 9.6 M132.68 -0.21 C147.98 -1.07, 164.68 0.97, 179.17 3.47 C193.66 5.98, 208.69 10.28, 219.63 14.81 C230.57 19.34, 238.87 24.99, 244.82 30.64 C250.78 36.29, 255.63 42.67, 255.39 48.7 C255.14 54.73, 250.29 61.49, 243.35 66.8 C236.42 72.12, 225.78 76.43, 213.78 80.59 C201.78 84.75, 186.46 89.57, 171.37 91.77 C156.28 93.97, 139.5 94.27, 123.25 93.8 C107 93.33, 88.86 91.3, 73.87 88.93 C58.89 86.57, 44.13 83.73, 33.35 79.61 C22.58 75.49, 14.8 69.79, 9.24 64.2 C3.68 58.61, -0.35 52.42, 0.02 46.05 C0.38 39.69, 4.47 31.8, 11.42 25.99 C18.37 20.19, 29.64 15.26, 41.7 11.21 C53.75 7.16, 68.66 3.69, 83.77 1.68 C98.88 -0.34, 124.22 -0.98, 132.35 -0.87 C140.48 -0.76, 132.76 1.41, 132.55 2.34" stroke="#000000" stroke-width="4" fill="none"></path></g><g transform="translate(1311.6467856757986 34.61527559682407) rotate(0 30.383995056152344 22.5)"><text x="30.383995056152344" y="0" font-family="Virgil, Segoe UI Emoji" font-size="36px" fill="#000000" text-anchor="middle" style="white-space: pre;" direction="ltr" dominant-baseline="text-before-edge">ano</text></g><g stroke-linecap="round" transform="translate(1641.622478820451 333.6614584477484) rotate(0 127.00639508709105 47.11527559682406)"><path d="M98.62 1.57 C113.22 -0.57, 132.09 -0.58, 148.01 0.39 C163.92 1.36, 180.24 4.01, 194.1 7.38 C207.97 10.76, 221.67 15.66, 231.2 20.63 C240.72 25.59, 247.63 31.5, 251.26 37.16 C254.9 42.82, 255.96 48.83, 253.01 54.58 C250.06 60.34, 242.28 66.42, 233.57 71.7 C224.86 76.97, 213.71 82.6, 200.76 86.24 C187.82 89.88, 171.82 92.23, 155.88 93.55 C139.95 94.87, 121.15 95.38, 105.14 94.17 C89.13 92.95, 73.45 89.46, 59.83 86.26 C46.21 83.06, 32.78 79.6, 23.41 74.97 C14.05 70.34, 7.21 64.46, 3.63 58.48 C0.05 52.49, -0.83 44.98, 1.93 39.05 C4.69 33.12, 11.69 27.9, 20.18 22.9 C28.68 17.9, 37.14 12.82, 52.89 9.04 C68.63 5.26, 101.76 1.57, 114.65 0.22 C127.53 -1.12, 130.14 0.29, 130.2 0.98 M134.96 1.2 C150.46 0.74, 167.89 1.12, 182.47 3.71 C197.05 6.3, 211.77 11.99, 222.46 16.75 C233.15 21.5, 241.34 26.46, 246.63 32.24 C251.91 38.03, 254.9 45.3, 254.17 51.47 C253.44 57.63, 249.68 63.87, 242.26 69.24 C234.85 74.61, 222.16 79.82, 209.66 83.68 C197.17 87.55, 182.24 90.82, 167.31 92.44 C152.37 94.05, 136.17 93.84, 120.04 93.35 C103.92 92.86, 85.46 92.13, 70.58 89.51 C55.69 86.9, 41.28 82.26, 30.73 77.65 C20.17 73.03, 12.15 67.34, 7.25 61.81 C2.36 56.28, 0.39 50.61, 1.36 44.47 C2.33 38.34, 5.88 30.49, 13.05 24.99 C20.22 19.5, 32.11 15.44, 44.4 11.49 C56.68 7.54, 71.83 3.39, 86.74 1.3 C101.65 -0.8, 126.01 -1.18, 133.84 -1.09 C141.67 -1, 133.79 0.72, 133.72 1.84" stroke="none" stroke-width="0" fill="#ffffff"></path><path d="M167.68 1.86 C183.04 2.81, 198.44 7.45, 210.77 11.5 C223.1 15.55, 234.51 20.76, 241.66 26.18 C248.8 31.6, 252.81 38.09, 253.62 44.02 C254.43 49.95, 251.58 56.03, 246.53 61.77 C241.48 67.5, 233.9 73.72, 223.33 78.43 C212.76 83.14, 197.88 87.56, 183.12 90.03 C168.37 92.5, 150.77 92.93, 134.82 93.24 C118.88 93.55, 102.71 93.69, 87.45 91.9 C72.19 90.1, 55.53 86.41, 43.25 82.44 C30.98 78.48, 20.81 73.52, 13.79 68.12 C6.77 62.72, 2.37 56.2, 1.15 50.04 C-0.08 43.87, 1.34 36.63, 6.45 31.14 C11.55 25.64, 21.26 21.58, 31.78 17.05 C42.3 12.52, 55.31 6.88, 69.57 3.95 C83.83 1.02, 100.36 -0.4, 117.34 -0.52 C134.32 -0.64, 162.05 2.43, 171.44 3.23 C180.84 4.03, 174.35 3.5, 173.69 4.27 M116.22 -0.16 C131.34 -1.22, 148.96 0.28, 164.72 2.13 C180.48 3.99, 198.07 7.08, 210.79 10.99 C223.51 14.91, 233.83 20.43, 241.05 25.63 C248.27 30.84, 252.93 36.16, 254.12 42.23 C255.32 48.3, 253.09 56.21, 248.22 62.05 C243.35 67.89, 235.46 72.92, 224.9 77.25 C214.34 81.59, 199.54 85.19, 184.85 88.08 C170.16 90.97, 152.68 93.81, 136.77 94.58 C120.85 95.35, 104.7 94.51, 89.34 92.71 C73.98 90.9, 57.22 88.02, 44.61 83.76 C32.01 79.5, 20.93 72.86, 13.72 67.16 C6.51 61.46, 2.49 55.53, 1.36 49.57 C0.22 43.61, 2.03 37.04, 6.93 31.39 C11.82 25.74, 20.21 19.82, 30.71 15.67 C41.2 11.53, 55.57 9.13, 69.87 6.54 C84.16 3.95, 108.57 1.22, 116.47 0.12 C124.37 -0.99, 117.21 -0.83, 117.27 -0.07" stroke="#000000" stroke-width="4" fill="none"></path></g><g transform="translate(1712.7766487443678 358.27673404457244) rotate(0 54.827980041503906 22.5)"><text x="54.827980041503906" y="0" font-family="Virgil, Segoe UI Emoji" font-size="36px" fill="#000000" text-anchor="middle" style="white-space: pre;" direction="ltr" dominant-baseline="text-before-edge">genero</text></g><g stroke-linecap="round" transform="translate(1566.3404623776999 454.5223828048189) rotate(0 127.00639508709105 47.11527559682406)"><path d="M151.12 1.05 C166.75 1.62, 184.38 5.28, 198.02 8.67 C211.66 12.06, 223.89 16.61, 232.95 21.41 C242 26.2, 249.39 31.7, 252.34 37.42 C255.29 43.15, 253.88 49.67, 250.65 55.75 C247.43 61.83, 241.71 68.77, 232.99 73.93 C224.28 79.1, 211.96 83.43, 198.35 86.76 C184.75 90.09, 167.31 92.94, 151.39 93.92 C135.47 94.89, 118.62 93.76, 102.82 92.6 C87.02 91.43, 70.07 89.98, 56.59 86.92 C43.11 83.86, 30.95 79.35, 21.95 74.23 C12.95 69.12, 5.74 62.11, 2.6 56.21 C-0.54 50.31, 0.09 44.66, 3.1 38.85 C6.11 33.03, 11.79 26.49, 20.66 21.35 C29.52 16.2, 42.82 11.37, 56.31 7.97 C69.81 4.57, 84.13 2.04, 101.64 0.94 C119.15 -0.17, 149.69 0.89, 161.39 1.34 C173.1 1.78, 172.36 2.78, 171.87 3.6 M172.86 3.91 C187.92 5.53, 202.27 9.09, 214.05 13.34 C225.84 17.58, 236.71 23.71, 243.57 29.38 C250.44 35.04, 255.15 41.34, 255.26 47.33 C255.38 53.31, 250.44 59.78, 244.28 65.28 C238.11 70.79, 229.05 76.33, 218.27 80.35 C207.49 84.37, 194.36 87.09, 179.59 89.42 C164.82 91.75, 146.19 94.16, 129.65 94.34 C113.1 94.51, 95.3 92.76, 80.33 90.49 C65.36 88.22, 51.22 84.7, 39.83 80.71 C28.43 76.73, 18.58 72.2, 11.95 66.56 C5.32 60.93, 0.41 53.02, 0.05 46.91 C-0.31 40.79, 3.83 35.48, 9.78 29.89 C15.74 24.31, 25.03 17.89, 35.78 13.38 C46.53 8.87, 59.81 4.93, 74.29 2.84 C88.78 0.75, 106.43 0.62, 122.69 0.82 C138.95 1.02, 163.57 3.31, 171.86 4.03 C180.15 4.75, 172.87 4.39, 172.45 5.12" stroke="none" stroke-width="0" fill="#ffffff"></path><path d="M90.48 2.12 C104.54 -0.22, 122.93 -0.17, 138.77 0.33 C154.61 0.83, 171.06 2.25, 185.5 5.09 C199.94 7.94, 214.99 12.6, 225.4 17.41 C235.82 22.22, 243.46 28.41, 247.99 33.95 C252.52 39.49, 253.9 44.75, 252.6 50.63 C251.31 56.51, 247.69 63.82, 240.21 69.25 C232.74 74.68, 220.29 79.39, 207.75 83.21 C195.21 87.03, 180.26 90.43, 164.97 92.18 C149.68 93.93, 132.24 94.46, 116 93.73 C99.75 93, 81.86 90.42, 67.48 87.81 C53.1 85.2, 40.17 82.7, 29.71 78.07 C19.24 73.44, 9.73 66.03, 4.7 60.04 C-0.32 54.04, -2.18 47.86, -0.44 42.09 C1.29 36.32, 7.37 30.62, 15.12 25.41 C22.87 20.19, 30.93 14.83, 46.06 10.8 C61.18 6.76, 93.44 2.95, 105.89 1.21 C118.34 -0.53, 120.63 -0.26, 120.76 0.36 M115.45 0.01 C130.94 -1.28, 148.94 0.38, 164.3 1.95 C179.67 3.52, 195.18 5.58, 207.65 9.45 C220.11 13.32, 231.28 19.77, 239.09 25.17 C246.9 30.58, 252.91 36.15, 254.51 41.89 C256.11 47.63, 253.59 53.7, 248.7 59.61 C243.8 65.51, 235.11 72.38, 225.12 77.34 C215.13 82.29, 202.95 86.42, 188.76 89.32 C174.56 92.22, 156.33 94.49, 139.95 94.75 C123.57 95, 105.83 92.91, 90.47 90.85 C75.12 88.78, 60.23 86.11, 47.83 82.35 C35.43 78.59, 23.84 73.49, 16.05 68.27 C8.26 63.05, 2.76 56.59, 1.09 51.04 C-0.58 45.5, 1.52 40.62, 6.02 35.01 C10.53 29.4, 17.97 22.44, 28.12 17.36 C38.26 12.27, 52.73 7.38, 66.87 4.5 C81.01 1.62, 105.11 0.38, 112.97 0.06 C120.83 -0.25, 113.75 1.93, 114.03 2.62" stroke="#000000" stroke-width="4" fill="none"></path></g><g transform="translate(1640.8246341326724 479.1376584016429) rotate(0 51.49797821044922 22.5)"><text x="51.49797821044922" y="0" font-family="Virgil, Segoe UI Emoji" font-size="36px" fill="#000000" text-anchor="middle" style="white-space: pre;" direction="ltr" dominant-baseline="text-before-edge">idioma</text></g><g stroke-linecap="round" transform="translate(1566.8525849385346 211.77628896900774) rotate(0 127.00639508709094 47.11527559682406)"><path d="M137.22 0.65 C152.75 0.17, 171.09 2.11, 185.31 4.66 C199.52 7.22, 212.06 11.21, 222.52 15.97 C232.97 20.72, 242.75 27.3, 248.04 33.18 C253.34 39.06, 255.68 45.27, 254.29 51.25 C252.9 57.23, 247.07 63.9, 239.7 69.05 C232.33 74.2, 222.27 78.25, 210.06 82.16 C197.85 86.07, 181.83 90.37, 166.43 92.51 C151.04 94.64, 133.81 95.57, 117.67 94.99 C101.54 94.4, 84.04 91.7, 69.63 88.97 C55.23 86.24, 41.91 83.11, 31.24 78.63 C20.57 74.15, 10.75 67.95, 5.61 62.09 C0.46 56.24, -0.91 49.53, 0.38 43.48 C1.66 37.43, 6.14 31.25, 13.33 25.8 C20.52 20.36, 31.11 14.8, 43.51 10.81 C55.91 6.83, 71.29 3.66, 87.72 1.9 C104.15 0.13, 132 0.33, 142.09 0.21 C152.18 0.09, 148.62 0.38, 148.29 1.19 M158.35 2.74 C174.07 3.59, 191.26 7.06, 204 10.62 C216.74 14.18, 226.79 19.04, 234.79 24.09 C242.78 29.15, 249.22 35.33, 251.99 40.95 C254.76 46.57, 255.29 52.07, 251.4 57.8 C247.5 63.53, 238.61 70.46, 228.6 75.32 C218.59 80.18, 205.12 83.98, 191.36 86.97 C177.6 89.95, 161.74 92.18, 146.04 93.22 C130.35 94.26, 112.97 94.8, 97.18 93.2 C81.39 91.6, 64.3 87.3, 51.31 83.61 C38.33 79.93, 27.48 76.22, 19.27 71.08 C11.06 65.95, 4.86 58.89, 2.06 52.78 C-0.74 46.68, -1.12 39.95, 2.49 34.46 C6.1 28.97, 14.02 24.32, 23.74 19.84 C33.46 15.35, 46.62 10.6, 60.82 7.55 C75.03 4.51, 92.63 2.46, 109 1.58 C125.37 0.69, 150.9 2.34, 159.05 2.25 C167.19 2.17, 158.38 0.64, 157.86 1.05" stroke="none" stroke-width="0" fill="#ffffff"></path><path d="M127.57 -0.36 C143.1 -0.99, 162.54 1.6, 177.52 4.14 C192.49 6.69, 206.35 10.8, 217.43 14.9 C228.52 18.99, 237.78 23.21, 244.03 28.69 C250.28 34.17, 255.01 41.64, 254.92 47.77 C254.84 53.89, 249.94 59.93, 243.5 65.45 C237.07 70.96, 227.73 76.66, 216.33 80.84 C204.94 85.03, 190.3 88.48, 175.14 90.55 C159.99 92.62, 141.66 93.13, 125.41 93.27 C109.15 93.4, 92.62 93.7, 77.59 91.34 C62.57 88.97, 46.84 83.64, 35.26 79.09 C23.68 74.54, 13.94 69.4, 8.13 64.03 C2.33 58.66, 0.04 52.8, 0.4 46.89 C0.77 40.98, 3.85 34.06, 10.3 28.56 C16.74 23.07, 27.54 18.23, 39.09 13.92 C50.63 9.62, 62.11 5.06, 79.56 2.75 C97.01 0.44, 130.54 0.23, 143.81 0.04 C157.08 -0.14, 159.38 0.65, 159.17 1.65 M117.33 -0.96 C132.4 -2.06, 150.86 0.77, 166.38 2.74 C181.91 4.7, 198.2 7.18, 210.48 10.83 C222.76 14.49, 232.93 19.17, 240.05 24.67 C247.16 30.17, 251.64 37.55, 253.17 43.83 C254.71 50.11, 254.16 56.58, 249.24 62.35 C244.32 68.11, 234.42 74.2, 223.66 78.41 C212.89 82.63, 198.91 85.25, 184.66 87.64 C170.4 90.03, 154.13 92.24, 138.15 92.76 C122.17 93.27, 104.27 92.48, 88.76 90.71 C73.26 88.93, 57.47 85.55, 45.12 82.09 C32.77 78.63, 22.18 75.15, 14.67 69.95 C7.16 64.74, 1.44 57.27, 0.06 50.86 C-1.32 44.45, 1.52 37.22, 6.39 31.48 C11.26 25.73, 18.85 20.54, 29.27 16.4 C39.69 12.25, 54.45 9.44, 68.92 6.61 C83.4 3.78, 107.94 0.38, 116.13 -0.58 C124.33 -1.54, 117.69 0.02, 118.07 0.84" stroke="#000000" stroke-width="4" fill="none"></path></g><g transform="translate(1633.1827573648932 235.3673194441617) rotate(0 59.6519775390625 22.5)"><text x="59.6519775390625" y="0" font-family="Virgil, Segoe UI Emoji" font-size="36px" fill="#000000" text-anchor="middle" style="white-space: pre;" direction="ltr" dominant-baseline="text-before-edge">diretor</text></g><g stroke-linecap="round" transform="translate(1428.5794935130727 91.93960973360731) rotate(0 127.00639508709105 47.11527559682408)"><path d="M158.36 1.05 C173.66 1.99, 190.99 6.49, 204.16 10.29 C217.32 14.1, 229.34 18.69, 237.36 23.87 C245.38 29.05, 250.15 35.6, 252.3 41.35 C254.45 47.1, 254.3 52.55, 250.27 58.36 C246.24 64.17, 237.94 71.17, 228.14 76.23 C218.34 81.28, 205.45 85.8, 191.48 88.7 C177.5 91.61, 160.31 92.84, 144.3 93.64 C128.28 94.45, 111.2 94.99, 95.4 93.55 C79.6 92.1, 62.51 88.77, 49.49 84.98 C36.48 81.2, 25.43 76.11, 17.31 70.86 C9.18 65.61, 3.07 59.54, 0.73 53.5 C-1.61 47.46, -0.92 40.5, 3.29 34.61 C7.51 28.73, 16.12 22.9, 26.02 18.18 C35.92 13.45, 48.59 9.3, 62.69 6.28 C76.78 3.26, 91.89 0.49, 110.59 0.04 C129.28 -0.4, 161.58 2.49, 174.85 3.62 C188.12 4.76, 190.86 6.07, 190.21 6.83 M179.97 5.68 C194.4 7.35, 209.05 12.03, 220.34 16.15 C231.64 20.27, 242.21 24.84, 247.74 30.4 C253.26 35.96, 254.61 43.45, 253.49 49.48 C252.36 55.52, 247.77 61.3, 241.01 66.63 C234.24 71.96, 224.55 77.28, 212.89 81.48 C201.23 85.68, 186.37 89.95, 171.05 91.84 C155.72 93.74, 137.12 93.24, 120.96 92.85 C104.8 92.46, 88.63 92.04, 74.09 89.5 C59.55 86.96, 45.03 82.19, 33.71 77.58 C22.38 72.97, 11.96 67.18, 6.15 61.86 C0.34 56.54, -1.98 51.33, -1.15 45.67 C-0.31 40.01, 3.96 33.28, 11.18 27.89 C18.4 22.5, 29.82 17.36, 42.16 13.32 C54.49 9.27, 69.93 6.04, 85.18 3.61 C100.42 1.19, 117.45 -1.16, 133.62 -1.23 C149.8 -1.29, 174.47 2.11, 182.25 3.24 C190.03 4.38, 181.36 4.48, 180.32 5.6" stroke="none" stroke-width="0" fill="#ffffff"></path><path d="M103.53 1.51 C118.07 -0.45, 136.55 -1, 152.61 0.15 C168.67 1.3, 186.47 4.9, 199.91 8.42 C213.35 11.94, 224.51 16.26, 233.26 21.29 C242.02 26.31, 249.29 32.7, 252.43 38.59 C255.56 44.48, 255.57 50.92, 252.07 56.63 C248.58 62.35, 240.71 67.71, 231.47 72.86 C222.23 78.01, 210.35 84.27, 196.63 87.54 C182.92 90.81, 165.34 91.64, 149.16 92.48 C132.98 93.32, 115.17 93.61, 99.55 92.57 C83.93 91.53, 68.59 89.55, 55.42 86.24 C42.25 82.93, 29.27 77.73, 20.54 72.72 C11.8 67.71, 5.98 62.19, 2.99 56.18 C0.01 50.17, -0.51 42.69, 2.63 36.66 C5.76 30.63, 12.63 25, 21.81 20.01 C30.98 15.02, 43.41 9.79, 57.68 6.71 C71.94 3.63, 98.47 2.33, 107.39 1.54 C116.32 0.75, 110.9 1.29, 111.24 1.96 M82.27 2.79 C95.85 -0.19, 113.97 -1.25, 129.9 -0.97 C145.83 -0.68, 162.8 1.79, 177.85 4.51 C192.91 7.22, 208.96 10.94, 220.21 15.33 C231.46 19.72, 239.76 25.61, 245.35 30.85 C250.94 36.09, 253.96 41.12, 253.76 46.78 C253.56 52.44, 250.52 59.29, 244.15 64.81 C237.77 70.34, 227.32 75.72, 215.51 79.94 C203.71 84.16, 188.45 87.53, 173.33 90.14 C158.22 92.75, 141.15 95.58, 124.82 95.58 C108.5 95.59, 90.29 93.03, 75.39 90.18 C60.48 87.34, 46.71 82.87, 35.41 78.5 C24.11 74.13, 13.51 69.13, 7.58 63.96 C1.65 58.79, -0.61 53.57, -0.18 47.47 C0.25 41.37, 3.38 33.14, 10.14 27.36 C16.89 21.58, 28.41 16.91, 40.34 12.8 C52.26 8.69, 74.81 4.29, 81.68 2.71 C88.56 1.12, 80.89 2.34, 81.6 3.29" stroke="#000000" stroke-width="4" fill="none"></path></g><g transform="translate(1519.9656656952907 115.53064020876133) rotate(0 34.595977783203125 22.499999999999996)"><text x="34.595977783203125" y="0" font-family="Virgil, Segoe UI Emoji" font-size="36px" fill="#000000" text-anchor="middle" style="white-space: pre;" direction="ltr" dominant-baseline="text-before-edge">pais</text></g><g stroke-linecap="round" transform="translate(1427.555248391403 575.3833071618894) rotate(0 127.00639508709094 47.11527559682406)"><path d="M96.23 1.97 C110.52 -0.16, 128.51 0.43, 144.51 1.08 C160.51 1.73, 178.2 2.79, 192.23 5.85 C206.26 8.92, 218.97 14.39, 228.68 19.47 C238.4 24.56, 246.49 30.65, 250.52 36.35 C254.55 42.05, 255.12 47.71, 252.85 53.66 C250.59 59.6, 245.34 66.76, 236.94 72.01 C228.54 77.27, 215.56 81.73, 202.48 85.19 C189.39 88.64, 174.1 91.33, 158.44 92.76 C142.78 94.2, 124.7 94.71, 108.52 93.77 C92.34 92.83, 75.18 90.26, 61.34 87.12 C47.5 83.98, 35.09 79.68, 25.48 74.93 C15.86 70.18, 7.55 64.45, 3.64 58.64 C-0.26 52.82, -0.2 45.95, 2.03 40.03 C4.26 34.11, 8.79 28.29, 17.02 23.12 C25.24 17.95, 37.79 12.61, 51.37 9 C64.95 5.4, 89.98 2.54, 98.49 1.5 C106.99 0.46, 101.79 2.19, 102.39 2.78 M176.83 2.8 C191.84 4.22, 205.34 9.64, 216.44 13.92 C227.55 18.21, 237.13 23.07, 243.47 28.52 C249.81 33.97, 254.15 40.45, 254.48 46.62 C254.81 52.79, 251.71 60.12, 245.44 65.54 C239.16 70.95, 228.25 74.96, 216.82 79.1 C205.39 83.25, 191.69 88.1, 176.83 90.41 C161.98 92.73, 144.31 93.17, 127.68 93.01 C111.06 92.85, 92.35 91.42, 77.06 89.45 C61.76 87.49, 47.29 85.14, 35.9 81.23 C24.51 77.32, 14.61 71.51, 8.72 66 C2.83 60.49, 0.22 54.19, 0.57 48.18 C0.91 42.16, 4.59 35.86, 10.79 29.92 C16.99 23.97, 26.31 17.11, 37.76 12.52 C49.22 7.92, 64.59 4.38, 79.51 2.33 C94.43 0.29, 111.21 -0.16, 127.27 0.25 C143.33 0.66, 167.82 4.08, 175.89 4.77 C183.96 5.47, 176.45 4.1, 175.68 4.44" stroke="none" stroke-width="0" fill="#ffffff"></path><path d="M172.68 3.14 C187.86 4.59, 201.79 8.45, 213.55 12.55 C225.31 16.64, 236.35 22.26, 243.23 27.72 C250.1 33.17, 254.38 39.44, 254.79 45.28 C255.2 51.12, 251.46 56.93, 245.69 62.75 C239.92 68.58, 231.4 75.84, 220.2 80.22 C208.99 84.61, 193.48 86.84, 178.47 89.07 C163.46 91.29, 146.12 93.17, 130.15 93.58 C114.18 93.99, 97.64 93.53, 82.65 91.52 C67.67 89.5, 52 85.54, 40.25 81.46 C28.51 77.39, 18.92 72.63, 12.19 67.05 C5.47 61.48, 0.68 54.17, -0.09 48.01 C-0.86 41.86, 1.88 35.78, 7.58 30.12 C13.28 24.45, 22.96 18.18, 34.11 14.03 C45.27 9.87, 59.74 7.4, 74.5 5.18 C89.27 2.95, 105.28 0.8, 122.7 0.68 C140.13 0.57, 168.81 3.52, 179.07 4.49 C189.33 5.46, 185.09 5.71, 184.28 6.5 M109.82 0.91 C125.05 -0.27, 145.36 0.75, 161.08 2.34 C176.79 3.94, 191.5 7.17, 204.1 10.46 C216.7 13.75, 228.4 17.23, 236.69 22.08 C244.98 26.94, 251.55 33.59, 253.85 39.58 C256.15 45.56, 254.77 52.13, 250.51 58 C246.25 63.88, 238.15 69.63, 228.3 74.84 C218.44 80.05, 205.53 86.09, 191.38 89.25 C177.24 92.41, 159.55 93.41, 143.41 93.78 C127.27 94.15, 110.32 93.05, 94.55 91.48 C78.79 89.91, 61.77 87.57, 48.82 84.35 C35.88 81.13, 24.95 77.46, 16.89 72.16 C8.83 66.87, 2.36 58.83, 0.44 52.6 C-1.49 46.36, 0.96 40.5, 5.34 34.74 C9.72 28.97, 17.13 22.87, 26.72 18.01 C36.32 13.15, 48.97 8.36, 62.93 5.58 C76.89 2.79, 102.35 1.89, 110.48 1.29 C118.62 0.69, 111.36 1.15, 111.73 1.98" stroke="#000000" stroke-width="4" fill="none"></path></g><g transform="translate(1483.3356608124782 599.9985827587135) rotate(0 71.22598266601562 22.5)"><text x="71.22598266601562" y="0" font-family="Virgil, Segoe UI Emoji" font-size="36px" fill="#000000" text-anchor="middle" style="white-space: pre;" direction="ltr" dominant-baseline="text-before-edge">duracao</text></g><g stroke-linecap="round" transform="translate(994.2995619249563 575.3833071618893) rotate(0 127.006395087091 47.11527559682406)"><path d="M126.07 -0.52 C141.55 -1.32, 160.62 0.79, 175.69 3.15 C190.76 5.51, 204.91 9.39, 216.47 13.65 C228.03 17.9, 238.93 23.1, 245.06 28.68 C251.2 34.26, 253.3 41.13, 253.26 47.13 C253.23 53.14, 250.89 59.13, 244.86 64.73 C238.82 70.32, 228.45 76.24, 217.06 80.7 C205.68 85.16, 191.39 89.37, 176.54 91.49 C161.69 93.62, 144.17 93.65, 127.95 93.44 C111.73 93.22, 94.28 92.24, 79.24 90.21 C64.2 88.18, 49.4 85.46, 37.72 81.25 C26.04 77.03, 15.44 70.69, 9.17 64.91 C2.89 59.13, 0.06 52.46, 0.08 46.55 C0.1 40.63, 3.14 34.75, 9.26 29.41 C15.39 24.08, 25.27 18.85, 36.83 14.54 C48.39 10.24, 61.86 5.86, 78.61 3.6 C95.37 1.35, 125.64 1.25, 137.34 1.01 C149.04 0.76, 148.99 1.63, 148.81 2.13 M77.09 4.51 C90.85 1.68, 110.63 1.09, 127.17 1.07 C143.71 1.05, 161.37 2.48, 176.36 4.37 C191.34 6.26, 205.59 8.53, 217.08 12.41 C228.57 16.3, 239.08 21.89, 245.28 27.69 C251.48 33.49, 254.35 40.8, 254.26 47.21 C254.18 53.63, 250.79 60.68, 244.76 66.19 C238.74 71.71, 229.51 76.43, 218.12 80.3 C206.74 84.18, 191.65 87.17, 176.45 89.42 C161.25 91.67, 143.3 93.43, 126.94 93.8 C110.59 94.18, 93.04 93.78, 78.34 91.66 C63.63 89.53, 50.31 85.3, 38.71 81.06 C27.12 76.82, 15.09 71.88, 8.78 66.19 C2.47 60.5, 0.87 53.32, 0.84 46.93 C0.82 40.54, 2.77 33.41, 8.6 27.85 C14.43 22.29, 24.09 17.76, 35.82 13.58 C47.54 9.4, 71.74 4.53, 78.97 2.78 C86.21 1.02, 78.81 2.35, 79.23 3.06" stroke="none" stroke-width="0" fill="#ffffff"></path><path d="M147.26 1.05 C162.73 1.1, 179.18 3.24, 192.78 6.21 C206.39 9.18, 219.34 14.07, 228.9 18.87 C238.47 23.68, 246.26 28.99, 250.18 35.06 C254.1 41.13, 254.89 49.09, 252.43 55.28 C249.96 61.48, 243.79 67.2, 235.39 72.23 C227 77.26, 215.21 81.99, 202.05 85.47 C188.88 88.95, 172.08 91.62, 156.4 93.12 C140.71 94.62, 123.86 95.42, 107.93 94.46 C92 93.5, 74.81 90.67, 60.8 87.37 C46.8 84.08, 33.37 79.37, 23.89 74.67 C14.42 69.98, 7.61 65.01, 3.96 59.21 C0.31 53.41, -0.51 45.99, 1.99 39.87 C4.49 33.76, 10.8 27.53, 18.97 22.51 C27.14 17.49, 38.17 13.18, 51.01 9.74 C63.85 6.3, 78.65 3.23, 95.99 1.86 C113.33 0.49, 143.74 1.23, 155.04 1.51 C166.35 1.8, 164.02 2.88, 163.83 3.56 M124.45 -0.18 C139.74 -0.54, 158.86 2.66, 173.96 4.8 C189.06 6.94, 203.23 8.74, 215.04 12.66 C226.84 16.58, 238.21 22.74, 244.8 28.31 C251.4 33.87, 254.64 40.14, 254.59 46.06 C254.54 51.99, 250.59 58.04, 244.51 63.84 C238.44 69.65, 229.19 76.36, 218.14 80.9 C207.08 85.43, 192.98 88.63, 178.18 91.06 C163.38 93.48, 145.83 95.69, 129.33 95.42 C112.83 95.15, 94.47 91.79, 79.18 89.43 C63.88 87.08, 48.87 85.08, 37.55 81.28 C26.24 77.49, 17.44 72.4, 11.31 66.66 C5.17 60.93, 0.98 52.93, 0.76 46.87 C0.54 40.8, 4.28 35.71, 9.99 30.27 C15.7 24.83, 23.69 18.53, 35 14.23 C46.32 9.94, 62.58 6.84, 77.87 4.5 C93.17 2.16, 118.9 0.62, 126.8 0.2 C134.69 -0.22, 125.24 1.4, 125.25 1.99" stroke="#000000" stroke-width="4" fill="none"></path></g><g transform="translate(1006.2697718879356 599.9985827587134) rotate(0 114.0119400024414 22.5)"><text x="114.0119400024414" y="0" font-family="Virgil, Segoe UI Emoji" font-size="36px" fill="#000000" text-anchor="middle" style="white-space: pre;" direction="ltr" dominant-baseline="text-before-edge">classificacao</text></g><g stroke-linecap="round" transform="translate(1216.04863076653 646.0562205571256) rotate(0 127.00639508709094 47.11527559682406)"><path d="M164.78 2.73 C180.06 4.01, 196.29 8.09, 208.75 11.81 C221.22 15.53, 232.01 19.74, 239.58 25.06 C247.15 30.37, 252.85 37.63, 254.18 43.71 C255.52 49.78, 252.54 55.89, 247.61 61.48 C242.68 67.07, 234.92 72.71, 224.59 77.27 C214.26 81.83, 200.11 86.14, 185.62 88.85 C171.13 91.56, 153.69 93.05, 137.65 93.52 C121.61 93.99, 104.75 93.39, 89.38 91.67 C74.01 89.95, 57.76 87.02, 45.41 83.18 C33.06 79.34, 22.91 73.92, 15.3 68.63 C7.69 63.34, 1.29 57.42, -0.23 51.43 C-1.74 45.44, 1.26 38.41, 6.23 32.71 C11.21 27.01, 19.2 21.65, 29.63 17.24 C40.07 12.83, 54.38 9.23, 68.84 6.26 C83.29 3.29, 99.19 0.03, 116.37 -0.6 C133.55 -1.23, 161.83 1.47, 171.91 2.49 C181.99 3.52, 177.79 4.76, 176.84 5.53 M132.49 -0.46 C148.28 -0.8, 166.67 2.34, 181.31 4.72 C195.94 7.1, 209.29 9.5, 220.31 13.81 C231.33 18.12, 241.7 24.93, 247.41 30.59 C253.13 36.24, 255.68 41.91, 254.61 47.76 C253.54 53.6, 248.12 59.87, 241 65.66 C233.88 71.46, 223.74 78.11, 211.9 82.53 C200.07 86.95, 184.88 90.06, 169.99 92.18 C155.1 94.31, 138.4 95.5, 122.55 95.26 C106.71 95.02, 89.63 93.64, 74.92 90.73 C60.21 87.83, 45.27 82.57, 34.27 77.81 C23.27 73.05, 14.58 67.54, 8.93 62.16 C3.27 56.77, -0.15 51.1, 0.35 45.5 C0.85 39.9, 5.03 34.07, 11.95 28.56 C18.86 23.06, 29.91 16.96, 41.84 12.49 C53.78 8.02, 68.6 3.89, 83.55 1.74 C98.5 -0.4, 123.57 -0.42, 131.56 -0.39 C139.55 -0.36, 131.29 0.99, 131.49 1.94" stroke="none" stroke-width="0" fill="#ffffff"></path><path d="M116.08 -0.09 C131.1 -1.51, 148.92 -0.83, 164.34 1.14 C179.76 3.11, 196.26 7.92, 208.6 11.75 C220.94 15.59, 231.08 19.1, 238.39 24.16 C245.7 29.22, 250.74 35.92, 252.47 42.12 C254.19 48.32, 253.35 55.5, 248.74 61.34 C244.14 67.18, 235.1 72.5, 224.83 77.16 C214.57 81.82, 201.53 86.58, 187.16 89.28 C172.79 91.99, 154.99 92.98, 138.62 93.39 C122.25 93.8, 104.42 93.54, 88.93 91.73 C73.45 89.91, 58.1 86.11, 45.71 82.5 C33.32 78.89, 22.14 75.14, 14.58 70.08 C7.03 65.02, 1.87 58.23, 0.39 52.14 C-1.1 46.05, 0.97 39.36, 5.66 33.55 C10.34 27.73, 18.12 21.82, 28.52 17.27 C38.92 12.71, 52.28 9.1, 68.04 6.23 C83.8 3.35, 112.63 0.93, 123.08 0.01 C133.53 -0.91, 130.58 -0.25, 130.74 0.69 M158.46 0.07 C174.03 0.45, 191.17 4.5, 204.29 8.14 C217.4 11.78, 229 16.67, 237.15 21.92 C245.3 27.16, 250.92 33.22, 253.18 39.61 C255.44 45.99, 254.89 54.27, 250.72 60.23 C246.55 66.2, 237.98 71.01, 228.17 75.4 C218.35 79.78, 205.88 83.49, 191.82 86.52 C177.76 89.56, 159.92 92.31, 143.8 93.58 C127.68 94.86, 110.75 95.77, 95.11 94.18 C79.48 92.58, 62.74 87.93, 50 84.04 C37.27 80.15, 26.73 75.95, 18.7 70.82 C10.67 65.69, 4.36 59.28, 1.84 53.24 C-0.68 47.2, -0.39 40.19, 3.59 34.59 C7.58 29, 15.73 24.24, 25.73 19.67 C35.73 15.1, 49.54 10.18, 63.58 7.18 C77.62 4.18, 94.24 2.85, 109.98 1.66 C125.72 0.47, 150.13 -0.14, 158.02 0.06 C165.91 0.26, 157.54 1.69, 157.3 2.85" stroke="#000000" stroke-width="4" fill="none"></path></g><g transform="translate(1281.4428138130065 670.6714961539498) rotate(0 60.58796691894531 22.5)"><text x="60.58796691894531" y="0" font-family="Virgil, Segoe UI Emoji" font-size="36px" fill="#000000" text-anchor="middle" style="white-space: pre;" direction="ltr" dominant-baseline="text-before-edge">sinopse</text></g><g stroke-linecap="round" transform="translate(669.6138583555376 284.4976926075836) rotate(0 159.78223898053392 103.44875728867902)"><path d="M199.63 27.06 L297.93 91.92 L307.1 98.67 L307.64 105 L307.14 109.78 L290.76 119.37 L185.46 190.22 L172.39 197.81 L163.7 201.85 L157.22 199.77 L137.53 191.65 L26.08 120.96 L12.46 111.46 L12.43 106.13 L13.19 99 L22.41 88.75 L127.52 22.04 L149.78 8.71 L159.98 5.19 L167.09 8.38 L183.02 15.13 L199.89 27.02" stroke="none" stroke-width="0" fill="#ffffff"></path><path d="M200 26 M200 26 C220.45 41.37, 243.25 55.73, 279.56 78 M200 26 C219.09 37.71, 238.55 49.43, 279.56 78 M279.56 78 C318.22 103.75, 319.28 105.91, 279.56 130 M279.56 78 C318.53 102.88, 321.19 103.62, 279.56 130 M279.56 130 C251.4 147.34, 226.62 165.81, 200 180.9 M279.56 130 C252.15 147.11, 224.85 165.78, 200 180.9 M200 180.9 C161.38 208.21, 161 205.8, 120 180.9 M200 180.9 C161.39 207.9, 158.3 206.93, 120 180.9 M120 180.9 C91.22 162.97, 63.53 146.68, 40 130 M120 180.9 C101.11 168.56, 82.42 156.21, 40 130 M40 130 C-1.03 104.26, -0.86 103.38, 40 78 M40 130 C-0.32 105.7, -0.89 102.28, 40 78 M40 78 C64.48 63.08, 90.12 48.43, 120 26 M40 78 C71.09 57.63, 103.45 36.39, 120 26 M120 26 C159.49 0.16, 158.82 -0.77, 200 26 M120 26 C160.71 -0.77, 161.68 0.6, 200 26" stroke="#000000" stroke-width="4" fill="none"></path></g><g transform="translate(764.0921269991574 365.4464498962626) rotate(0 65.30397033691406 22.5)"><text x="65.30397033691406" y="0" font-family="Virgil, Segoe UI Emoji" font-size="36px" fill="#000000" text-anchor="middle" style="white-space: pre;" direction="ltr" dominant-baseline="text-before-edge">Avaliam</text></g><g stroke-linecap="round" transform="translate(1172.5182130955511 324.95537491355213) rotate(0 117.78818899206021 62.9910749827105)"><path d="M31.5 0 L204.08 0 L211.46 0.49 L217.86 1.97 L223.27 4.43 L227.7 7.87 L231.15 12.3 L233.61 17.72 L235.08 24.11 L235.58 94.49 L235.08 101.87 L233.61 108.27 L231.15 113.68 L227.7 118.11 L223.27 121.55 L217.86 124.01 L211.46 125.49 L204.08 125.98 L31.5 125.98 L24.11 125.49 L17.72 124.01 L12.3 121.55 L7.87 118.11 L4.43 113.68 L1.97 108.27 L0.49 101.87 L0.49 24.11 L1.97 17.72 L4.43 12.3 L7.87 7.87 L12.3 4.43 L17.72 1.97 L24.11 0.49 L31.5 0" stroke="none" stroke-width="0" fill="#ffffff"></path><path d="M31.5 0 M31.5 0 C95.88 0, 160.27 0, 204.08 0 M31.5 0 C77.95 0, 124.41 0, 204.08 0 M204.08 0 C225.08 0, 235.58 10.5, 235.58 31.5 M204.08 0 C225.08 0, 235.58 10.5, 235.58 31.5 M235.58 31.5 C235.58 49.89, 235.58 68.28, 235.58 94.49 M235.58 31.5 C235.58 49.71, 235.58 67.93, 235.58 94.49 M235.58 94.49 C235.58 115.48, 225.08 125.98, 204.08 125.98 M235.58 94.49 C235.58 115.48, 225.08 125.98, 204.08 125.98 M204.08 125.98 C144.24 125.98, 84.39 125.98, 31.5 125.98 M204.08 125.98 C153.87 125.98, 103.66 125.98, 31.5 125.98 M31.5 125.98 C10.5 125.98, 0 115.48, 0 94.49 M31.5 125.98 C10.5 125.98, 0 115.48, 0 94.49 M0 94.49 C0 76.89, 0 59.3, 0 31.5 M0 94.49 C0 70.87, 0 47.25, 0 31.5 M0 31.5 C0 10.5, 10.5 0, 31.5 0 M0 31.5 C0 10.5, 10.5 0, 31.5 0" stroke="#000000" stroke-width="4" fill="none"></path></g><g transform="translate(1250.0584315065566 365.4464498962626) rotate(0 40.24797058105469 22.5)"><text x="40.24797058105469" y="0" font-family="Virgil, Segoe UI Emoji" font-size="36px" fill="#000000" text-anchor="middle" style="white-space: pre;" direction="ltr" dominant-baseline="text-before-edge">Filme</text></g><g stroke-linecap="round" transform="translate(250.6976035924714 324.9553749135521) rotate(0 117.78818899206021 62.9910749827105)"><path d="M30.9 -0.36 L202.16 1 L213.26 -1.39 L221.34 2.44 L229.89 13.1 L235.7 24.27 L235.5 96.24 L236.08 101.55 L229.87 112.55 L222.48 121.14 L216.1 123.82 L206.04 125.66 L32.81 125.96 L18.41 122.53 L12.77 122.16 L5.99 113.15 L0.47 100.56 L-0.08 24.78 L3.8 18.72 L7.77 8.89 L17.42 0.08 L32.76 -1.76" stroke="none" stroke-width="0" fill="#ffffff"></path><path d="M31.5 0 M31.5 0 C91.02 0.48, 154.79 -0.95, 204.08 0 M31.5 0 C82.18 1.21, 134.06 2.29, 204.08 0 M204.08 0 C224.18 -0.98, 236.99 10.17, 235.58 31.5 M204.08 0 C225.98 -0.73, 234.93 9.32, 235.58 31.5 M235.58 31.5 C236.79 52.39, 237.54 70.35, 235.58 94.49 M235.58 31.5 C235.95 45.06, 235.76 56.76, 235.58 94.49 M235.58 94.49 C236.78 116.36, 223.6 126.01, 204.08 125.98 M235.58 94.49 C236.96 116.54, 227.14 126.28, 204.08 125.98 M204.08 125.98 C153.65 128.19, 105.86 127.47, 31.5 125.98 M204.08 125.98 C159.29 124.59, 115.11 124.15, 31.5 125.98 M31.5 125.98 C10.22 127.46, -0.78 113.99, 0 94.49 M31.5 125.98 C10.59 127.11, -0.92 115.97, 0 94.49 M0 94.49 C1.22 72.24, 1.02 52.29, 0 31.5 M0 94.49 C-0.76 72.64, -1.1 50.25, 0 31.5 M0 31.5 C0.62 9.83, 11.96 0.52, 31.5 0 M0 31.5 C0.02 8.46, 12.39 -0.36, 31.5 0" stroke="#000000" stroke-width="4" fill="none"></path></g><g transform="translate(283.56182713042983 365.44644989626255) rotate(0 84.92396545410156 22.5)"><text x="84.92396545410156" y="0" font-family="Virgil, Segoe UI Emoji" font-size="36px" fill="#000000" text-anchor="middle" style="white-space: pre;" direction="ltr" dominant-baseline="text-before-edge">Avaliação</text></g><g stroke-linecap="round"><g transform="translate(499.58916815830275 400.2373913563037) rotate(0 87.83346259105008 6.439073785595582)"><path d="M-0.77 -0.68 C14.93 1.36, 65.63 10.93, 94.78 12.04 C123.92 13.16, 160.5 7.04, 174.09 6.03 M1.03 1.58 C16.48 3.82, 64.34 12.5, 93.58 13.45 C122.81 14.4, 163.11 8.37, 176.43 7.28" stroke="#000000" stroke-width="4" fill="none"></path></g><g transform="translate(499.58916815830275 400.2373913563037) rotate(0 87.83346259105008 6.439073785595582)"><path d="M148.39 19.74 C158.54 14.32, 168.16 13.4, 176.11 8.6 M149.75 20.84 C158.3 16.51, 165.55 12.16, 176.15 7.62" stroke="#000000" stroke-width="4" fill="none"></path></g><g transform="translate(499.58916815830275 400.2373913563037) rotate(0 87.83346259105008 6.439073785595582)"><path d="M146.17 -0.66 C157.06 1.07, 167.46 7.28, 176.11 8.6 M147.53 0.44 C156.81 2.23, 164.73 3.97, 176.15 7.62" stroke="#000000" stroke-width="4" fill="none"></path></g></g><mask></mask><g stroke-linecap="round"><g transform="translate(988.1540911949353 381.8009791662421) rotate(0 85.36010214193436 -7.495467366588684)"><path d="M-0.48 -0.25 C14.84 -2.54, 62.52 -12.87, 91.13 -14.46 C119.74 -16.04, 157.92 -10.58, 171.2 -9.77 M1.47 -1.42 C17.21 -3.47, 65.02 -11.79, 93.29 -12.98 C121.55 -14.17, 158.02 -9.3, 171.05 -8.56" stroke="#000000" stroke-width="4" fill="none"></path></g><g transform="translate(988.1540911949353 381.8009791662421) rotate(0 85.36010214193436 -7.495467366588684)"><path d="M141.66 -2.56 C148.76 -0.56, 155.48 -3.04, 171.03 -7.86 M142.85 -1.06 C148.59 -3.29, 154.87 -4.06, 171.96 -8.05" stroke="#000000" stroke-width="4" fill="none"></path></g><g transform="translate(988.1540911949353 381.8009791662421) rotate(0 85.36010214193436 -7.495467366588684)"><path d="M143.45 -23 C150.02 -16.18, 156.31 -13.83, 171.03 -7.86 M144.64 -21.51 C150.03 -19.11, 155.9 -15.26, 171.96 -8.05" stroke="#000000" stroke-width="4" fill="none"></path></g></g><mask></mask><g stroke-linecap="round"><g transform="translate(990.2025814382755 395.11616574795323) rotate(0 84.87857399089904 3.4637247258091577)"><path d="M-1.05 -0.12 C13.39 1.43, 57.54 9.6, 86.19 9.03 C114.83 8.46, 156.77 -1.3, 170.81 -3.54 M0.59 -1.22 C15.02 0.53, 57.54 10.63, 85.86 10.46 C114.17 10.29, 156.28 0.15, 170.46 -2.23" stroke="#000000" stroke-width="4" fill="none"></path></g><g transform="translate(990.2025814382755 395.11616574795323) rotate(0 84.87857399089904 3.4637247258091577)"><path d="M144.57 15.22 C151.16 10.77, 158.14 6.12, 168.98 -1.76 M144.76 12.61 C152.85 8.54, 162.54 3.6, 170.41 -1.71" stroke="#000000" stroke-width="4" fill="none"></path></g><g transform="translate(990.2025814382755 395.11616574795323) rotate(0 84.87857399089904 3.4637247258091577)"><path d="M140.63 -4.92 C148.2 -4.1, 156.21 -3.51, 168.98 -1.76 M140.81 -7.53 C150.37 -4.93, 161.36 -3.22, 170.41 -1.71" stroke="#000000" stroke-width="4" fill="none"></path></g></g><mask></mask><g transform="translate(564.8155570443017 343.9039096644488) rotate(0 11.591995239257812 22.5)"><text x="11.591995239257812" y="0" font-family="Virgil, Segoe UI Emoji" font-size="36px" fill="#000000" text-anchor="middle" style="white-space: pre;" direction="ltr" dominant-baseline="text-before-edge">N</text></g><g transform="translate(1060.0944769681414 311.16145844774786) rotate(0 4.877998352050781 22.5)"><text x="4.877998352050781" y="0" font-family="Virgil, Segoe UI Emoji" font-size="36px" fill="#000000" text-anchor="middle" style="white-space: pre;" direction="ltr" dominant-baseline="text-before-edge">1</text></g><g stroke-linecap="round" transform="translate(10.000000000000014 91.93960973360731) rotate(0 127.006395087091 47.11527559682406)"><path d="M87.92 2.26 C102.04 -0.16, 121.83 0.27, 137.94 0.64 C154.05 1.02, 170.4 1.93, 184.59 4.51 C198.78 7.1, 212.57 11.61, 223.08 16.14 C233.58 20.68, 242.55 25.76, 247.62 31.71 C252.69 37.66, 254.79 45.58, 253.52 51.82 C252.24 58.07, 247.32 63.94, 239.97 69.19 C232.62 74.44, 221.83 79.48, 209.41 83.31 C196.99 87.14, 180.79 90.24, 165.43 92.17 C150.07 94.09, 133.33 95.38, 117.26 94.86 C101.19 94.35, 83.59 91.98, 69 89.07 C54.41 86.16, 40.13 81.82, 29.72 77.4 C19.31 72.98, 11.32 68.23, 6.52 62.56 C1.72 56.88, -0.41 49.5, 0.9 43.33 C2.21 37.16, 7.27 30.79, 14.39 25.55 C21.52 20.31, 31.15 15.73, 43.65 11.9 C56.14 8.06, 81.21 4.03, 89.36 2.54 C97.5 1.04, 91.84 2.2, 92.5 2.94 M183.08 3.63 C197.65 5.47, 210.59 10.82, 221.23 15.76 C231.88 20.7, 241.62 27.67, 246.93 33.27 C252.24 38.86, 253.89 43.6, 253.09 49.32 C252.3 55.04, 249.06 62.14, 242.15 67.58 C235.23 73.02, 224.02 78.08, 211.62 81.97 C199.23 85.86, 183.16 88.74, 167.78 90.91 C152.39 93.09, 135.22 95.15, 119.32 95.01 C103.41 94.87, 86.78 92.66, 72.32 90.07 C57.86 87.48, 43.56 84.33, 32.54 79.48 C21.52 74.63, 11.71 66.78, 6.2 60.97 C0.69 55.16, -1.8 50.22, -0.5 44.62 C0.79 39.03, 6.59 33, 13.96 27.39 C21.33 21.78, 31.6 15, 43.73 10.96 C55.85 6.93, 71.71 5.01, 86.72 3.2 C101.74 1.39, 117.65 -0.27, 133.82 0.11 C149.99 0.49, 175.53 4.53, 183.74 5.48 C191.94 6.44, 184.18 5.07, 183.06 5.84" stroke="none" stroke-width="0" fill="#ffffff"></path><path d="M73.41 4.97 C86.57 1.92, 106.21 0.42, 122.22 0.17 C138.23 -0.09, 154.26 1.31, 169.46 3.45 C184.65 5.58, 201.18 8.9, 213.4 13.01 C225.62 17.11, 236.18 22.68, 242.78 28.09 C249.38 33.5, 252.29 39.63, 253 45.45 C253.71 51.28, 252.38 57.51, 247.03 63.02 C241.68 68.54, 231.77 74.16, 220.89 78.55 C210 82.95, 196.46 86.63, 181.71 89.37 C166.95 92.1, 148.52 94.77, 132.34 94.97 C116.17 95.18, 99.79 92.84, 84.68 90.61 C69.58 88.39, 53.73 85.62, 41.73 81.64 C29.74 77.66, 19.79 72.02, 12.71 66.74 C5.64 61.47, 0.22 55.82, -0.72 49.99 C-1.66 44.17, 1.52 37.67, 7.09 31.8 C12.66 25.93, 20.51 19.48, 32.72 14.77 C44.92 10.06, 71.2 5.47, 80.34 3.54 C89.48 1.61, 86.91 2.43, 87.55 3.19 M103.63 0.83 C118.91 -0.89, 139.28 0.32, 155.08 1.37 C170.89 2.42, 185.22 3.94, 198.47 7.15 C211.73 10.35, 225.44 15.32, 234.59 20.61 C243.75 25.9, 250.79 32.75, 253.41 38.89 C256.03 45.02, 253.97 51.37, 250.3 57.43 C246.64 63.48, 240.46 70.36, 231.42 75.21 C222.38 80.06, 209.61 83.7, 196.07 86.52 C182.52 89.35, 166.2 90.91, 150.17 92.17 C134.13 93.43, 115.67 95.22, 99.88 94.08 C84.09 92.94, 68.52 89.11, 55.45 85.33 C42.38 81.56, 30.59 76.16, 21.47 71.44 C12.36 66.72, 3.85 62.79, 0.77 57.02 C-2.31 51.25, -0.57 42.8, 2.99 36.82 C6.56 30.85, 12.98 25.83, 22.16 21.17 C31.33 16.51, 44.47 12.28, 58.04 8.84 C71.61 5.4, 96.09 1.57, 103.59 0.51 C111.09 -0.55, 102.37 1.88, 103.05 2.46" stroke="#000000" stroke-width="4" fill="none"></path></g><g transform="translate(93.26640485271601 116.55488533043138) rotate(0 43.73999023437499 22.499999999999996)"><text x="43.739990234375" y="0" font-family="Virgil, Segoe UI Emoji" font-size="36px" fill="#000000" text-anchor="middle" style="white-space: pre;" direction="ltr" dominant-baseline="text-before-edge">Nota</text></g><g stroke-linecap="round"><g transform="translate(266.0476269899076 152.35619826795403) rotate(0 51.12455766975128 78.7808828582817)"><path d="M0.49 0.61 C11.15 11.72, 45.73 41.56, 62.81 67.54 C79.88 93.52, 96.46 141.8, 102.96 156.49 M-0.71 -0.12 C10.44 10.59, 47.93 39.61, 65.14 65.91 C82.36 92.21, 96.45 142.63, 102.56 157.68" stroke="#000000" stroke-width="4" fill="none"></path></g><g transform="translate(266.0476269899076 152.35619826795403) rotate(0 51.12455766975128 78.7808828582817)"><path d="M84.57 133.28 C89.19 140.3, 91.09 143.15, 100.81 159 M84.53 134.59 C88.5 141.91, 95.69 148.88, 103.32 158.64" stroke="#000000" stroke-width="4" fill="none"></path></g><g transform="translate(266.0476269899076 152.35619826795403) rotate(0 51.12455766975128 78.7808828582817)"><path d="M103.94 126.5 C104.66 134.97, 102.61 139.21, 100.81 159 M103.9 127.8 C102.12 137.25, 103.54 146.24, 103.32 158.64" stroke="#000000" stroke-width="4" fill="none"></path></g></g><mask></mask><g stroke-linecap="round"><g transform="translate(258.7035834183125 596.0561907428092) rotate(0 50.824643217738924 -62.96469485663172)"><path d="M-1.15 0.51 C9.95 -8.87, 48.22 -36.28, 65.55 -57.43 C82.87 -78.59, 96.76 -115.06, 102.8 -126.44 M0.45 -0.27 C11.56 -9.34, 48.09 -35.01, 65.03 -55.84 C81.98 -76.67, 96.03 -113.24, 102.13 -125.26" stroke="#000000" stroke-width="4" fill="none"></path></g><g transform="translate(258.7035834183125 596.0561907428092) rotate(0 50.824643217738924 -62.96469485663172)"><path d="M100.56 -93.98 C100.69 -101.34, 100.57 -109.3, 102.94 -124.97 M100.52 -96.07 C100.96 -103.53, 100.29 -109.39, 101.5 -125.97" stroke="#000000" stroke-width="4" fill="none"></path></g><g transform="translate(258.7035834183125 596.0561907428092) rotate(0 50.824643217738924 -62.96469485663172)"><path d="M81.9 -102.53 C85.89 -107.9, 89.71 -114.06, 102.94 -124.97 M81.86 -104.63 C86.75 -110.21, 90.54 -114.02, 101.5 -125.97" stroke="#000000" stroke-width="4" fill="none"></path></g></g><mask></mask><g stroke-linecap="round"><g transform="translate(1139.7371394844286 203.57186856028858) rotate(0 41.340110101278356 52.045894588848796)"><path d="M0.83 0.11 C6.18 10.23, 17.66 43.72, 30.92 61.2 C44.18 78.67, 71.99 97.87, 80.4 104.97 M-0.19 -0.88 C5.11 9.37, 16.22 45.3, 30.07 62.59 C43.91 79.89, 74.27 95.9, 82.87 102.88" stroke="#000000" stroke-width="4" fill="none"></path></g><g transform="translate(1139.7371394844286 203.57186856028858) rotate(0 41.340110101278356 52.045894588848796)"><path d="M53.96 95.9 C59.3 95.54, 66.5 98.65, 81.66 102.4 M54.37 94.6 C64.64 98.98, 76.13 100.83, 82.21 102.08" stroke="#000000" stroke-width="4" fill="none"></path></g><g transform="translate(1139.7371394844286 203.57186856028858) rotate(0 41.340110101278356 52.045894588848796)"><path d="M65.46 78.9 C68.52 82.09, 73.37 88.67, 81.66 102.4 M65.87 77.6 C71.75 88.6, 78.7 97.14, 82.21 102.08" stroke="#000000" stroke-width="4" fill="none"></path></g></g><mask></mask><g stroke-linecap="round"><g transform="translate(1342.54290648801 122.66692047640736) rotate(0 -16.478514244708663 92.07153084360823)"><path d="M0.19 -0.27 C-1.28 15.84, -2.53 65.94, -7.97 96.76 C-13.41 127.59, -28.31 169.7, -32.47 184.66 M-1.17 -1.45 C-2.33 14.28, -0.35 63.72, -5.68 94.9 C-11.01 126.07, -28.62 170.66, -33.14 185.6" stroke="#000000" stroke-width="4" fill="none"></path></g><g transform="translate(1342.54290648801 122.66692047640736) rotate(0 -16.478514244708663 92.07153084360823)"><path d="M-34.2 154.27 C-32.69 166.96, -34.49 177.27, -31.26 187.22 M-34.41 155.92 C-34.07 161.75, -33.96 168.52, -33.68 186.4" stroke="#000000" stroke-width="4" fill="none"></path></g><g transform="translate(1342.54290648801 122.66692047640736) rotate(0 -16.478514244708663 92.07153084360823)"><path d="M-14.78 160.89 C-20.45 171.17, -29.41 179.03, -31.26 187.22 M-14.99 162.54 C-19.12 166.67, -23.46 171.93, -33.68 186.4" stroke="#000000" stroke-width="4" fill="none"></path></g></g><mask></mask><g stroke-linecap="round"><g transform="translate(1514.8483099457565 199.21368665672944) rotate(0 -64.26584745719424 56.88004614909944)"><path d="M-0.8 0.48 C-10.06 11.72, -34.07 48.22, -55.37 67.15 C-76.67 86.08, -116.6 106.58, -128.59 114.07 M0.98 -0.31 C-8.44 11.09, -34.48 49.53, -56.23 68.3 C-77.97 87.07, -117.78 104.91, -129.51 112.32" stroke="#000000" stroke-width="4" fill="none"></path></g><g transform="translate(1514.8483099457565 199.21368665672944) rotate(0 -64.26584745719424 56.88004614909944)"><path d="M-108.88 90.08 C-117.2 96.29, -120.37 105.49, -130.94 113.52 M-110.32 89.08 C-114.49 93.59, -118.34 99.71, -129.76 111.86" stroke="#000000" stroke-width="4" fill="none"></path></g><g transform="translate(1514.8483099457565 199.21368665672944) rotate(0 -64.26584745719424 56.88004614909944)"><path d="M-99.04 108.09 C-110.43 108.55, -116.7 112.07, -130.94 113.52 M-100.48 107.09 C-106.51 108.01, -112.34 110.51, -129.76 111.86" stroke="#000000" stroke-width="4" fill="none"></path></g></g><mask></mask><g stroke-linecap="round"><g transform="translate(1603.195478673603 305.45126957791746) rotate(0 -89.93765194960656 18.696580216502454)"><path d="M0.17 -0.73 C-14.16 4.59, -56.83 26.08, -86.82 32.41 C-116.81 38.74, -164.25 36.5, -179.79 37.25 M-1.2 1.51 C-15.65 6.48, -58.11 24.78, -87.92 30.88 C-117.73 36.98, -164.8 37.03, -180.05 38.12" stroke="#000000" stroke-width="4" fill="none"></path></g><g transform="translate(1603.195478673603 305.45126957791746) rotate(0 -89.93765194960656 18.696580216502454)"><path d="M-153.53 26.19 C-156.86 31, -166.63 33.25, -182.03 36.81 M-152.98 25.88 C-162.12 31.07, -171.02 33.6, -180.86 38.05" stroke="#000000" stroke-width="4" fill="none"></path></g><g transform="translate(1603.195478673603 305.45126957791746) rotate(0 -89.93765194960656 18.696580216502454)"><path d="M-152.66 46.7 C-156.27 46.72, -166.25 44.2, -182.03 36.81 M-152.11 46.38 C-161.4 44.77, -170.59 40.51, -180.86 38.05" stroke="#000000" stroke-width="4" fill="none"></path></g></g><mask></mask><g stroke-linecap="round"><g transform="translate(1631.8625221745917 394.05975432156083) rotate(0 -101.10687546563736 0.9053508063630034)"><path d="M-0.29 1.13 C-18.16 2.31, -73.17 7.48, -107.06 6.34 C-140.94 5.2, -187.25 -3.97, -203.59 -5.72 M1.76 0.67 C-16.2 2.05, -73.21 8.38, -107.5 7.43 C-141.79 6.48, -187.68 -3.31, -203.97 -5.02" stroke="#000000" stroke-width="4" fill="none"></path></g><g transform="translate(1631.8625221745917 394.05975432156083) rotate(0 -101.10687546563736 0.9053508063630034)"><path d="M-172.68 -9.32 C-185.28 -7.95, -195.07 -8.6, -203.35 -6.29 M-175.1 -10.14 C-181.58 -10.28, -188.87 -8.54, -204.01 -4.25" stroke="#000000" stroke-width="4" fill="none"></path></g><g transform="translate(1631.8625221745917 394.05975432156083) rotate(0 -101.10687546563736 0.9053508063630034)"><path d="M-175.76 10.96 C-187.26 5.97, -196.09 -1.06, -203.35 -6.29 M-178.18 10.15 C-183.82 5.39, -190.41 2.5, -204.01 -4.25" stroke="#000000" stroke-width="4" fill="none"></path></g></g><mask></mask><g stroke-linecap="round"><g transform="translate(1562.7556044518544 513.928599861684) rotate(0 -71.60632830369991 -32.16401131235477)"><path d="M0.97 -0.86 C-12.86 -5.17, -59.08 -14.31, -83.27 -24.74 C-107.46 -35.18, -134.03 -56.83, -144.18 -63.49 M0.02 1.31 C-13.88 -2.39, -60.22 -12.67, -83.84 -23.83 C-107.46 -34.99, -131.62 -58.93, -141.7 -65.63" stroke="#000000" stroke-width="4" fill="none"></path></g><g transform="translate(1562.7556044518544 513.928599861684) rotate(0 -71.60632830369991 -32.16401131235477)"><path d="M-114.66 -54.98 C-123.15 -59.87, -128.41 -62.44, -143.13 -66.97 M-113.48 -56.64 C-120.27 -58.11, -125.77 -59.35, -140.99 -66.19" stroke="#000000" stroke-width="4" fill="none"></path></g><g transform="translate(1562.7556044518544 513.928599861684) rotate(0 -71.60632830369991 -32.16401131235477)"><path d="M-127.4 -38.89 C-132.53 -48.33, -134.26 -55.33, -143.13 -66.97 M-126.22 -40.55 C-130.12 -45.66, -132.81 -50.46, -140.99 -66.19" stroke="#000000" stroke-width="4" fill="none"></path></g></g><mask></mask><g stroke-linecap="round"><g transform="translate(1466.4765630148659 575.3833071618894) rotate(0 -36.02745702391451 -53.28639039861733)"><path d="M0.72 -1.19 C-6.06 -7.64, -27.46 -21.87, -39.71 -39.57 C-51.96 -57.27, -67.26 -96.06, -72.78 -107.38 M-0.36 0.8 C-6.84 -5.95, -25.76 -23.61, -37.41 -41.49 C-49.06 -59.38, -64.35 -95.61, -70.28 -106.51" stroke="#000000" stroke-width="4" fill="none"></path></g><g transform="translate(1466.4765630148659 575.3833071618894) rotate(0 -36.02745702391451 -53.28639039861733)"><path d="M-50.71 -86.95 C-56.16 -94.72, -66.42 -102.74, -71.87 -107.58 M-49.55 -85.7 C-56.91 -92.89, -64.34 -102.15, -69.56 -107.32" stroke="#000000" stroke-width="4" fill="none"></path></g><g transform="translate(1466.4765630148659 575.3833071618894) rotate(0 -36.02745702391451 -53.28639039861733)"><path d="M-69.17 -77.98 C-67.53 -89.28, -70.76 -100.71, -71.87 -107.58 M-68.01 -76.73 C-68.33 -87.25, -68.75 -99.91, -69.56 -107.32" stroke="#000000" stroke-width="4" fill="none"></path></g></g><mask></mask><g stroke-linecap="round"><g transform="translate(1334.3489423194246 636.8380144620947) rotate(0 -19.387377870259343 -85.81372420647133)"><path d="M-0.79 0.38 C-5.81 -12.71, -22.94 -50.99, -29.44 -79.72 C-35.94 -108.45, -38.08 -156.94, -39.77 -172 M1 -0.47 C-3.7 -13.33, -20.74 -50.18, -27.13 -78.63 C-33.51 -107.09, -35.2 -155.6, -37.3 -171.19" stroke="#000000" stroke-width="4" fill="none"></path></g><g transform="translate(1334.3489423194246 636.8380144620947) rotate(0 -19.387377870259343 -85.81372420647133)"><path d="M-23.95 -145.29 C-30.31 -155.22, -35.06 -164.74, -35.7 -171.69 M-24.62 -143.25 C-26.88 -151.49, -30.1 -158.65, -38.17 -171.76" stroke="#000000" stroke-width="4" fill="none"></path></g><g transform="translate(1334.3489423194246 636.8380144620947) rotate(0 -19.387377870259343 -85.81372420647133)"><path d="M-44.39 -143.46 C-43.38 -153.92, -40.77 -164.1, -35.7 -171.69 M-45.06 -141.43 C-42.11 -150.12, -40.14 -157.74, -38.17 -171.76" stroke="#000000" stroke-width="4" fill="none"></path></g></g><mask></mask><g stroke-linecap="round"><g transform="translate(1147.9297010110245 566.1695606865754) rotate(0 31.73374856524083 -52.53687085690859)"><path d="M-0.76 -0.86 C5.21 -7.91, 24.22 -24.65, 35.05 -41.93 C45.89 -59.21, 59.31 -93.86, 64.23 -104.54 M1.04 1.31 C7.47 -5.65, 27 -22.94, 37.35 -40.89 C47.69 -58.84, 58.57 -95.66, 63.12 -106.38" stroke="#000000" stroke-width="4" fill="none"></path></g><g transform="translate(1147.9297010110245 566.1695606865754) rotate(0 31.73374856524083 -52.53687085690859)"><path d="M61.72 -77.72 C61.46 -84.49, 64.64 -90.95, 62.21 -108.02 M63.86 -76.94 C63.87 -85.99, 62.27 -94.56, 62.3 -105.41" stroke="#000000" stroke-width="4" fill="none"></path></g><g transform="translate(1147.9297010110245 566.1695606865754) rotate(0 31.73374856524083 -52.53687085690859)"><path d="M42.43 -84.72 C46.71 -89.73, 54.41 -94.54, 62.21 -108.02 M44.57 -83.95 C50.24 -91.09, 54.3 -97.6, 62.3 -105.41" stroke="#000000" stroke-width="4" fill="none"></path></g></g><mask></mask></svg>